<?xml version="1.0" encoding="iso-8859-1"?>
<!-- Generator: Adobe Illustrator 19.0.0, SVG Export Plug-In . SVG Version: 6.00 Build 0)  -->
<svg version="1.1" id="Layer_1" xmlns="http://www.w3.org/2000/svg" xmlns:xlink="http://www.w3.org/1999/xlink" x="0px" y="0px"
	 viewBox="0 0 512 512" style="enable-background:new 0 0 512 512;" xml:space="preserve">
<g>
	<g>
		<path d="M505.942,29.589c-8.077-8.077-21.172-8.077-29.249,0L232.468,273.813l-55.971-55.971c-8.077-8.076-21.172-8.076-29.249,0
			c-8.077,8.077-8.077,21.172,0,29.249l70.595,70.596c3.879,3.879,9.14,6.058,14.625,6.058c5.485,0,10.746-2.179,14.625-6.058
			l258.85-258.85C514.019,50.761,514.019,37.666,505.942,29.589z"/>
	</g>
</g>
<g>
	<g>
		<path d="M444.254,235.318c-11.423,0-20.682,9.26-20.682,20.682v164.722c0,14.547-11.835,26.381-26.381,26.381H67.746
			c-14.547,0-26.381-11.835-26.381-26.381V91.277c0-14.547,11.835-26.381,26.381-26.381h258.85c11.423,0,20.682-9.26,20.682-20.682
			c0-11.422-9.259-20.682-20.682-20.682H67.746C30.391,23.532,0,53.923,0,91.277v329.445c0,37.356,30.391,67.746,67.746,67.746
			h329.445c37.355,0,67.746-30.39,67.746-67.746V256C464.936,244.578,455.677,235.318,444.254,235.318z"/>
	</g>
</g>
<g>
</g>
<g>
</g>
<g>
</g>
<g>
</g>
<g>
</g>
<g>
</g>
<g>
</g>
<g>
</g>
<g>
</g>
<g>
</g>
<g>
</g>
<g>
</g>
<g>
</g>
<g>
</g>
<g>
</g>
</svg>
